<?xml version="1.0" standalone="no"?>
<!DOCTYPE svg PUBLIC "-//W3C//DTD SVG 20010904//EN"
 "http://www.w3.org/TR/2001/REC-SVG-20010904/DTD/svg10.dtd">
<svg version="1.0" xmlns="http://www.w3.org/2000/svg"
 width="969.000000pt" height="969.000000pt" viewBox="0 0 969.000000 969.000000"
 preserveAspectRatio="xMidYMid meet">
<metadata>
Created by potrace 1.14, written by Peter Selinger 2001-2017
</metadata>
<g transform="translate(0.000000,969.000000) scale(0.100000,-0.100000)"
fill="#000000" stroke="none">
<path d="M4771 9208 c-1 -10 -6 -18 -12 -18 -5 0 -7 6 -3 13 6 9 5 9 -7 0 -12
-10 -18 -10 -29 0 -10 9 -11 9 -6 -1 6 -9 1 -11 -18 -8 -14 3 -28 0 -32 -5 -3
-5 -10 -7 -15 -3 -5 3 -6 10 -3 16 4 7 2 8 -5 4 -6 -4 -9 -11 -7 -15 3 -4 1
-13 -5 -21 -6 -10 -9 -11 -9 -2 0 6 -5 12 -11 12 -5 0 -7 -4 -4 -10 3 -5 1
-10 -4 -10 -6 0 -11 4 -11 9 0 10 -19 9 -37 -2 -8 -5 -13 -3 -14 5 0 7 -4 4
-9 -7 -5 -11 -9 -15 -9 -8 -1 7 -8 10 -18 6 -10 -4 -14 -2 -10 4 3 5 0 10 -7
10 -8 0 -12 -6 -9 -14 4 -10 0 -11 -20 -4 -29 11 -42 4 -25 -16 8 -11 7 -12
-6 -7 -10 4 -16 1 -16 -7 0 -8 -6 -5 -16 7 -13 15 -15 16 -10 2 4 -12 1 -15
-11 -11 -12 5 -14 3 -8 -8 7 -11 6 -12 -6 -3 -8 6 -23 10 -34 8 -11 -1 -23 2
-27 9 -5 7 -8 2 -9 -13 0 -23 -1 -23 -9 -5 -5 12 -9 14 -9 6 -1 -8 -4 -11 -7
-8 -4 4 -15 -3 -25 -15 -11 -11 -19 -17 -19 -12 0 6 5 15 11 21 8 8 7 13 -3
18 -7 5 -10 5 -6 0 4 -4 0 -14 -8 -22 -8 -8 -12 -18 -10 -22 3 -4 -1 -8 -9 -8
-10 0 -11 5 -5 18 9 15 7 16 -15 5 -14 -6 -25 -18 -25 -26 0 -12 -2 -13 -9 -1
-6 8 -14 10 -22 5 -25 -15 -46 -14 -25 2 11 8 16 14 10 14 -17 -1 -41 -25 -37
-37 5 -14 -12 -18 -20 -5 -2 4 -3 2 -1 -5 1 -6 -6 -13 -17 -16 -17 -5 -18 -3
-8 9 10 12 8 13 -12 6 -13 -5 -32 -8 -41 -7 -10 2 -17 0 -17 -3 4 -28 -3 -41
-18 -35 -12 5 -14 3 -8 -8 8 -12 6 -12 -8 0 -16 12 -22 8 -18 -12 1 -5 -3 -6
-9 -2 -6 3 -8 11 -5 16 4 5 1 9 -4 9 -10 0 -16 -29 -12 -53 1 -5 -3 -6 -9 -2
-6 3 -8 11 -5 16 4 5 3 9 -2 10 -4 0 -16 2 -25 4 -10 2 -16 -2 -15 -8 1 -7 -8
-12 -20 -12 -12 0 -26 -5 -30 -9 -4 -5 -2 -6 5 -2 6 4 12 2 12 -5 0 -6 -8 -9
-20 -6 -16 4 -18 2 -11 -12 8 -13 5 -17 -12 -18 -46 -2 -85 -8 -81 -12 2 -2
-2 -11 -9 -19 -10 -13 -9 -14 10 -4 12 7 28 12 35 12 7 -1 0 -7 -17 -14 -26
-11 -33 -11 -49 3 -18 15 -18 15 -6 -9 12 -22 12 -24 -2 -12 -13 10 -18 10
-24 1 -4 -8 -3 -9 4 -5 7 4 12 2 12 -3 0 -6 -5 -11 -11 -11 -5 0 -7 -4 -4 -10
3 -6 -1 -7 -9 -4 -9 3 -13 11 -10 18 3 6 -1 3 -9 -6 -16 -20 -32 -25 -21 -7 3
6 -5 3 -20 -6 -22 -15 -24 -20 -14 -39 10 -18 9 -19 -4 -9 -11 10 -17 10 -28
0 -7 -6 -10 -7 -7 -1 3 6 0 11 -7 11 -8 0 -12 -11 -11 -29 1 -20 -1 -26 -9
-18 -13 13 -29 13 -21 0 4 -7 -4 -9 -22 -6 -27 5 -27 5 -8 -10 19 -16 19 -16
-5 -9 -23 7 -24 7 -10 -10 14 -17 14 -17 -7 -6 -19 10 -23 9 -23 -4 0 -9 -4
-14 -9 -10 -5 3 -12 1 -15 -4 -4 -5 -1 -13 5 -17 8 -5 9 -3 4 6 -5 9 -4 11 4
6 19 -12 2 -27 -19 -16 -24 13 -30 13 -30 -1 0 -5 4 -8 9 -4 5 3 12 1 16 -4 3
-6 -6 -8 -21 -5 -23 4 -25 3 -15 -9 9 -12 8 -16 -4 -21 -9 -3 -13 -11 -9 -17
3 -6 -5 -4 -19 5 -23 16 -25 16 -23 -1 0 -10 -4 -17 -11 -16 -7 2 -10 -4 -7
-12 7 -18 -7 -20 -25 -2 -11 10 -11 8 -1 -11 6 -13 9 -26 6 -30 -3 -3 -6 0 -6
6 0 7 -8 12 -17 11 -11 0 -13 -3 -5 -6 6 -2 9 -9 6 -14 -3 -6 -11 -5 -20 2
-12 10 -13 9 -8 -5 3 -9 11 -16 17 -16 6 0 7 -3 4 -6 -4 -4 -13 -1 -21 5 -13
11 -15 9 -11 -8 2 -14 -1 -18 -10 -15 -8 3 -11 13 -8 22 4 9 3 14 -1 11 -4 -4
-9 -19 -12 -35 -6 -33 -40 -74 -61 -74 -9 0 -11 -5 -7 -12 6 -10 4 -10 -8 0
-13 10 -18 10 -24 1 -4 -8 -3 -9 4 -5 21 13 13 -20 -10 -40 -12 -10 -18 -13
-13 -5 6 10 4 12 -4 7 -7 -5 -10 -15 -6 -23 4 -13 3 -14 -9 -4 -13 11 -15 9
-11 -8 3 -15 0 -18 -12 -14 -11 4 -14 2 -9 -5 4 -7 1 -12 -8 -12 -8 0 -18 -5
-22 -11 -4 -8 1 -9 17 -5 23 7 23 6 4 -6 -11 -7 -24 -13 -30 -13 -5 -1 -9 -7
-7 -14 2 -9 -3 -11 -14 -7 -13 5 -15 4 -5 -7 12 -16 2 -28 -32 -40 -15 -6 -16
-10 -6 -29 11 -20 11 -22 -3 -10 -12 10 -18 10 -23 1 -4 -6 -1 -15 6 -20 11
-6 8 -9 -8 -9 -12 0 -25 -4 -28 -10 -3 -5 0 -8 7 -7 7 2 10 2 5 0 -4 -3 -4 -9
-1 -15 4 -7 0 -7 -13 0 -15 9 -19 7 -20 -9 -1 -12 3 -17 9 -13 7 5 8 2 4 -5
-5 -7 -15 -10 -23 -6 -13 4 -14 3 -3 -10 11 -13 10 -14 -4 -9 -19 7 -22 -11
-3 -20 6 -4 3 -5 -8 -3 -16 3 -21 -2 -23 -20 -3 -36 -11 -45 -35 -37 -21 6
-20 5 3 -16 l25 -22 -23 7 c-21 6 -23 5 -13 -13 9 -18 8 -19 -12 -15 -12 3
-19 3 -15 -2 4 -4 0 -14 -8 -22 -10 -10 -11 -19 -5 -27 6 -7 3 -19 -10 -35
-10 -13 -19 -19 -19 -13 0 6 7 18 16 26 8 9 11 16 5 16 -15 0 -33 -39 -27 -57
4 -10 2 -13 -8 -10 -11 4 -13 1 -9 -11 6 -15 5 -16 -12 -2 -17 14 -17 14 -5
-7 8 -12 18 -19 24 -16 5 3 6 1 2 -6 -6 -8 -12 -9 -20 -2 -13 11 -16 3 -17
-42 0 -11 -5 -17 -13 -14 -7 3 -13 -1 -13 -9 0 -7 3 -11 7 -9 4 2 7 -2 7 -10
0 -7 -8 -12 -19 -10 -10 2 -16 0 -13 -5 3 -4 -1 -11 -7 -14 -7 -3 -2 -3 12 0
25 6 25 6 -4 -16 -26 -21 -27 -25 -12 -36 15 -10 15 -12 1 -18 -9 -3 -13 -2
-10 4 3 6 1 10 -4 10 -6 0 -11 -5 -11 -11 0 -5 -3 -8 -8 -5 -4 2 -7 -16 -7
-40 1 -36 -2 -43 -14 -39 -9 3 -12 3 -8 -1 4 -4 0 -15 -9 -25 -12 -13 -12 -19
-3 -25 7 -4 10 -3 6 3 -4 6 1 17 10 24 14 12 15 11 8 -11 -4 -14 -11 -26 -16
-28 -4 -2 -5 -10 -2 -19 5 -12 3 -14 -8 -8 -11 7 -11 5 1 -10 13 -17 13 -18
-1 -13 -14 5 -16 1 -12 -27 2 -18 0 -36 -6 -39 -6 -4 -8 -14 -5 -24 5 -14 4
-14 -4 -2 -8 10 -8 18 0 27 8 10 7 12 -6 7 -11 -4 -15 -13 -10 -26 4 -14 2
-18 -5 -14 -7 5 -9 1 -5 -8 3 -9 11 -13 18 -10 6 3 3 -1 -7 -9 -14 -11 -15
-16 -5 -20 8 -3 9 -6 1 -6 -6 -1 -9 -10 -6 -21 4 -15 0 -20 -13 -21 -18 0 -18
-1 1 -9 11 -5 16 -9 10 -9 -5 -1 -3 -6 5 -11 11 -8 7 -9 -15 -4 -29 6 -29 6
-10 -9 20 -16 20 -16 -5 -17 -14 0 -20 -4 -15 -8 13 -9 20 -46 7 -38 -5 3 -9
-1 -9 -9 0 -8 5 -11 10 -8 6 4 7 1 1 -8 -4 -8 -7 -25 -5 -38 2 -14 -1 -21 -8
-17 -10 7 -8 -25 4 -43 3 -5 1 -12 -5 -16 -5 -3 -10 -11 -10 -16 0 -6 4 -8 8
-5 4 2 8 -4 8 -15 0 -12 -4 -15 -10 -9 -6 6 -14 10 -20 10 -5 0 -6 -3 -3 -7 4
-3 -1 -15 -10 -25 -10 -11 -13 -19 -8 -18 19 4 38 0 32 -7 -4 -3 -1 -13 5 -22
7 -9 2 -7 -11 4 l-24 20 12 -22 c8 -16 8 -23 1 -23 -8 0 -8 -6 0 -20 8 -14 8
-20 0 -20 -6 0 -8 -5 -5 -10 4 -6 12 -7 18 -4 7 4 2 -4 -10 -16 -19 -20 -26
-22 -45 -13 -56 26 -347 142 -373 148 -5 2 -28 8 -50 13 -83 23 -200 29 -305
17 -95 -10 -94 -10 -106 -18 -6 -3 -25 -9 -44 -12 -18 -3 -45 -12 -61 -21 -16
-8 -31 -14 -34 -14 -3 0 -20 -7 -38 -16 -33 -16 -36 -15 -106 14 -66 28 -97
31 -111 11 -3 -4 -5 -444 -4 -978 0 -534 -2 -975 -5 -979 -3 -4 -31 -23 -61
-41 -125 -76 -241 -179 -319 -284 -73 -100 -147 -275 -188 -449 -18 -78 -24
-294 -10 -378 24 -140 101 -326 192 -464 86 -131 274 -320 374 -376 14 -8 16
-64 17 -575 l0 -567 32 -13 c17 -8 48 -21 69 -30 59 -26 69 -30 233 -100 85
-37 169 -72 185 -80 17 -7 122 -52 235 -100 214 -91 274 -117 327 -141 17 -8
34 -14 37 -14 3 0 36 -14 73 -31 84 -38 91 -41 288 -124 88 -37 164 -72 170
-76 5 -5 14 -9 21 -9 6 0 38 -12 70 -27 33 -15 61 -28 64 -29 9 -2 45 -17 108
-45 35 -16 66 -29 68 -29 3 0 30 -11 60 -25 30 -14 56 -25 58 -25 2 0 25 -10
52 -22 27 -12 51 -23 54 -23 3 -1 32 -14 65 -29 33 -15 65 -29 70 -30 13 -4
45 -17 127 -54 36 -17 69 -28 72 -25 3 4 6 1 6 -5 0 -7 6 -12 13 -12 8 0 27
-6 43 -14 55 -27 245 -106 254 -106 6 0 10 -5 10 -10 0 -6 3 -9 8 -9 4 1 10 0
15 -1 4 -1 10 -3 15 -4 4 -1 30 -12 57 -25 28 -12 72 -32 99 -42 27 -11 68
-28 90 -38 23 -10 70 -31 106 -46 36 -15 79 -33 95 -41 17 -7 77 -33 134 -58
80 -34 118 -57 164 -100 33 -31 67 -56 74 -56 7 0 13 -4 13 -10 0 -5 8 -10 18
-10 10 0 23 -5 29 -11 20 -20 128 -38 208 -34 141 6 267 65 327 154 10 15 21
26 25 27 11 1 36 12 121 50 39 18 72 30 72 27 0 -3 6 -1 13 5 6 6 37 20 66 32
59 23 155 65 183 81 10 5 25 9 33 9 8 0 15 4 15 8 0 5 6 9 13 9 6 0 43 14 80
31 38 18 70 32 73 32 2 0 26 9 52 21 26 12 56 25 67 29 11 5 40 17 65 28 25
12 110 48 190 82 80 34 159 67 175 75 17 7 59 25 95 40 36 15 90 38 120 52 30
14 60 26 66 27 7 1 18 7 26 14 8 6 23 13 34 15 10 2 40 13 66 25 26 12 49 22
52 22 3 0 36 14 73 31 37 17 82 37 98 44 17 7 56 25 88 39 32 14 60 26 63 26
3 0 20 6 37 14 18 8 86 37 152 66 66 28 134 57 150 65 17 7 170 73 340 145
171 73 324 138 340 145 17 7 73 32 125 55 52 23 100 43 105 44 6 1 26 10 45
18 43 20 171 75 208 90 15 6 30 11 35 10 4 -1 7 2 7 8 0 5 9 10 20 10 20 0 20
7 20 733 l0 732 38 40 c62 65 150 185 189 260 186 349 195 676 28 1041 -48
106 -100 181 -181 264 l-74 75 0 983 0 982 -27 2 c-67 3 -91 0 -136 -22 -47
-22 -48 -22 -95 -4 -26 10 -49 19 -52 20 -3 0 -12 4 -20 7 -8 4 -26 8 -40 11
-14 2 -44 9 -68 15 -73 20 -330 16 -364 -5 -5 -3 -20 -8 -35 -10 -26 -5 -173
-60 -236 -88 -57 -26 -267 -106 -277 -106 -6 0 -9 3 -9 8 1 4 0 9 -1 12 -1 3
-3 13 -5 23 -3 15 -1 16 11 6 7 -6 12 -15 9 -19 -3 -5 -2 -11 3 -14 4 -2 8 8
7 24 0 15 -3 26 -6 24 -4 -2 -12 3 -19 11 -11 13 -10 14 5 9 12 -5 16 -4 12 3
-4 6 -4 13 0 16 5 2 3 3 -4 1 -22 -5 -23 10 -1 24 13 7 15 11 6 8 -20 -6 -25
10 -5 17 7 3 4 6 -7 6 -16 1 -17 3 -5 18 8 9 9 14 3 10 -6 -3 -11 0 -11 8 0 8
4 12 9 9 4 -3 8 0 8 5 0 6 -5 11 -11 11 -8 0 -8 4 0 14 8 10 9 16 1 21 -6 3
-8 10 -5 15 3 5 -3 14 -12 20 -15 9 -14 10 7 6 14 -3 19 -3 13 0 -7 3 -13 12
-13 20 0 9 -5 12 -12 8 -10 -6 -10 -4 0 7 6 7 12 18 12 23 0 6 -5 4 -11 -4 -8
-12 -9 -11 -7 5 2 11 -3 26 -12 33 -13 12 -13 13 2 8 12 -3 15 -1 11 9 -3 8
-9 13 -13 10 -11 -7 -6 22 5 32 4 4 5 2 0 -6 -5 -10 -4 -12 4 -7 16 11 2 28
-18 22 -12 -5 -11 -2 3 9 17 13 18 15 3 15 -15 0 -20 11 -16 36 0 4 -5 11 -13
16 -10 8 -10 9 2 5 8 -2 14 -10 12 -17 -3 -11 0 -11 12 0 9 7 16 15 16 18 0 3
-3 3 -6 -1 -4 -3 -13 1 -21 9 -12 12 -18 12 -32 2 -14 -11 -14 -11 -4 3 7 9 9
20 5 24 -4 5 -1 5 6 1 6 -4 12 -2 12 3 0 6 -6 11 -12 11 -10 0 -10 2 0 9 11 7
10 9 -3 14 -13 5 -14 11 -5 27 10 18 7 24 -12 21 -8 -1 -5 20 6 38 7 10 3 12
-15 6 -24 -8 -24 -8 -4 11 11 11 16 16 11 12 -19 -15 -28 -8 -15 9 8 9 9 14 3
10 -7 -4 -15 0 -18 9 -5 12 -2 15 9 10 9 -3 13 -2 10 4 -3 6 -14 10 -23 11
-14 0 -13 2 3 9 11 5 14 9 7 9 -7 1 -10 6 -7 11 3 6 -4 10 -17 10 -18 0 -20 2
-8 9 8 6 18 7 22 5 4 -3 5 3 1 12 -4 11 -8 13 -11 6 -7 -21 -18 -13 -20 14 -3
34 -11 46 -25 38 -7 -4 -8 -3 -4 2 5 5 13 9 18 9 5 0 8 5 7 10 -2 6 -7 9 -12
7 -5 -2 -6 4 -3 12 4 10 1 13 -9 9 -9 -3 -14 1 -14 12 0 10 -4 13 -12 9 -9 -5
-9 -2 1 9 10 13 10 17 1 17 -9 0 -10 3 -1 13 8 10 7 19 -5 33 -14 18 -15 18
-4 -3 7 -15 7 -23 1 -23 -6 0 -13 11 -17 25 -3 14 -11 22 -17 18 -6 -4 -7 -1
-2 6 9 15 -24 93 -36 85 -5 -3 -9 -1 -9 5 0 5 6 12 13 14 7 3 5 6 -5 6 -11 1
-15 6 -12 16 3 8 -1 21 -9 30 -22 21 -33 19 -14 -3 15 -16 15 -19 2 -19 -8 0
-13 3 -10 5 3 3 -3 14 -12 25 -10 11 -13 17 -7 14 7 -4 14 0 17 8 4 10 1 12
-11 8 -15 -6 -16 -5 -2 12 8 10 10 16 3 12 -7 -4 -14 1 -18 13 -4 11 -11 17
-17 14 -7 -5 -9 -2 -6 7 5 12 -18 44 -32 44 -3 0 -4 3 -2 8 1 4 -4 7 -10 7 -9
0 -8 4 2 10 13 8 12 10 -4 10 -13 0 -17 5 -13 20 3 10 2 19 -2 18 -18 -2 -28
4 -28 17 0 8 5 15 10 15 6 0 7 3 4 6 -4 4 -14 1 -24 -7 -11 -9 -14 -10 -9 -1
4 7 1 12 -9 12 -15 0 -15 1 -1 16 21 21 20 30 -1 13 -15 -12 -16 -12 -10 3 4
12 2 15 -9 11 -16 -6 -19 8 -4 23 7 7 6 11 -4 11 -8 0 -13 -4 -10 -8 2 -4 0
-11 -6 -14 -6 -4 -10 -3 -9 2 4 24 -2 53 -11 48 -5 -3 -10 -1 -10 5 0 6 -4 8
-10 5 -5 -3 -10 -1 -10 5 0 6 -4 9 -9 5 -5 -3 -12 -1 -16 4 -3 6 4 8 17 6 22
-3 22 -3 4 8 -10 7 -28 22 -39 34 -11 12 -24 20 -29 17 -5 -3 -8 -2 -7 3 1 4
1 16 0 27 -1 15 -4 16 -15 7 -12 -10 -13 -9 -9 7 6 24 -37 70 -61 66 -12 -2
-14 1 -7 10 7 8 6 17 -1 26 -8 12 -9 12 -4 -2 3 -10 1 -18 -4 -18 -5 0 -12 9
-15 20 -3 11 -11 20 -16 20 -6 0 -7 -5 -3 -12 4 -6 3 -8 -4 -5 -5 4 -8 17 -5
30 4 18 3 19 -6 7 -9 -13 -11 -13 -11 3 0 10 -8 17 -21 17 -11 0 -17 5 -14 10
3 6 -1 10 -10 10 -11 0 -15 5 -12 15 4 8 1 17 -5 21 -7 4 -8 3 -4 -4 4 -7 3
-12 -2 -12 -5 0 -12 9 -15 20 -4 16 -11 20 -31 16 -15 -3 -24 -1 -21 5 4 5 10
7 15 4 5 -3 11 -1 14 4 4 5 -5 8 -18 7 -18 -2 -23 1 -18 12 4 11 2 13 -8 7
-10 -6 -12 -4 -7 8 3 9 3 16 -1 16 -20 -3 -32 2 -27 11 4 6 3 10 -2 9 -20 -3
-34 2 -28 11 4 6 3 10 -2 9 -22 -4 -34 2 -27 14 4 6 -3 3 -17 -8 -18 -15 -20
-16 -10 -2 10 12 10 17 2 17 -7 0 -9 5 -5 13 6 9 5 9 -7 0 -20 -16 -59 9 -59
37 0 10 -4 21 -9 24 -5 4 -7 -4 -3 -16 5 -19 4 -20 -10 -7 -9 7 -13 18 -10 23
3 5 -4 7 -16 4 -15 -4 -19 -2 -15 8 3 9 -1 14 -12 14 -10 0 -13 -5 -9 -12 4
-7 -7 -2 -24 10 -17 13 -35 28 -39 35 -4 7 0 7 10 -2 9 -7 17 -9 17 -3 0 15
-28 23 -36 10 -4 -6 -15 0 -29 16 -14 16 -33 26 -49 26 -27 0 -35 14 -13 24 8
4 7 5 -3 5 -8 -1 -22 -1 -30 0 -13 1 -13 2 0 11 11 8 6 9 -19 5 -25 -4 -37 -1
-48 12 -8 10 -12 13 -9 6 10 -19 -11 -24 -25 -6 -8 9 -9 14 -3 10 7 -4 14 -1
17 6 4 10 -2 13 -19 9 -15 -3 -32 2 -43 12 -10 9 -21 13 -24 9 -4 -3 -7 -1 -7
5 0 7 -7 12 -16 12 -9 0 -12 5 -8 12 4 7 3 8 -5 4 -6 -4 -9 -13 -5 -19 3 -7
-1 -4 -9 5 -11 14 -16 15 -27 5 -10 -10 -11 -9 -5 2 6 11 4 13 -8 8 -11 -4
-17 -1 -17 8 0 8 -5 15 -11 15 -5 0 -8 -4 -5 -8 2 -4 0 -14 -6 -22 -8 -12 -9
-12 -4 3 3 9 1 17 -4 17 -6 0 -9 5 -7 11 3 16 -65 21 -76 6 -6 -8 -7 -7 -4 4
4 12 -2 15 -26 15 -18 -1 -38 -5 -45 -10 -12 -7 -12 -4 -2 14 10 20 10 21 -8
16 -15 -5 -21 -1 -26 16 -6 21 -7 22 -20 6 -9 -13 -16 -14 -24 -6 -7 7 -19 13
-27 15 -21 4 -49 11 -55 13 -15 6 -37 4 -48 -4 -10 -7 -13 -6 -10 6 1 9 -1 17
-7 16 -5 0 -9 -4 -7 -9 1 -5 -2 -9 -8 -9 -5 0 -10 4 -10 10 0 6 -9 6 -26 -1
-22 -8 -25 -7 -16 4 9 10 5 13 -18 12 -16 0 -32 -4 -36 -8 -12 -12 -26 -8 -19
6 4 6 -1 3 -11 -8 -16 -20 -16 -20 -12 1 5 20 4 21 -20 8 -23 -12 -28 -11 -44
6 -20 22 -37 28 -20 8 8 -10 4 -13 -15 -15 -15 0 -22 2 -16 5 12 8 13 43 1 36
-5 -3 -6 -9 -3 -14 3 -4 -2 -11 -10 -14 -10 -4 -19 2 -26 17 -10 22 -10 22 -5
0 2 -12 -2 -24 -9 -27 -9 -3 -12 2 -10 15 2 12 0 17 -7 13 -5 -4 -15 0 -20 7
-8 11 -9 10 -5 -3 3 -9 -1 -19 -9 -22 -9 -3 -12 -1 -9 4 6 10 -14 12 -135 11
-84 0 -80 1 -80 -12 0 -8 6 -7 18 2 15 12 16 12 5 -2 -7 -9 -9 -20 -5 -25 4
-4 -1 -2 -11 6 -16 12 -20 12 -28 -1 -5 -8 -9 -9 -9 -3 0 5 5 15 11 21 6 6 9
17 6 25 -4 9 -6 7 -6 -4z m129 -13 c0 -2 -9 -9 -19 -15 -14 -7 -22 -7 -27 2
-4 6 -3 8 2 5 6 -3 16 -2 24 4 17 10 20 11 20 4z m31 -8 c-6 -8 -9 -17 -6 -21
3 -3 -1 -1 -7 4 -10 9 -10 13 2 20 21 13 24 12 11 -3z m-237 -9 c-3 -4 -11 -8
-19 -8 -7 0 -15 -5 -17 -12 -3 -7 -7 -5 -11 6 -4 9 -3 15 2 11 5 -3 12 -2 15
3 3 5 12 9 20 9 8 0 13 -4 10 -9z m36 8 c0 -2 -8 -10 -17 -17 -16 -13 -17 -12
-4 4 13 16 21 21 21 13z m254 -8 c-3 -4 -12 -8 -20 -8 -8 0 -14 4 -14 8 0 4 9
8 19 8 11 0 17 -4 15 -8z m481 -38 c0 -2 37 -11 53 -12 6 -1 12 -6 12 -11 0
-5 -8 -6 -17 -2 -10 4 -31 8 -46 10 -16 1 -33 7 -38 12 -6 6 -1 9 13 7 13 -1
23 -3 23 -4z m-1471 -122 c-3 -5 -10 -6 -15 -3 -5 4 -9 1 -9 -6 0 -7 -3 -10
-6 -6 -9 9 3 24 20 24 8 0 13 -4 10 -9z m1916 -29 c0 -6 -4 -7 -10 -4 -5 3
-10 11 -10 16 0 6 5 7 10 4 6 -3 10 -11 10 -16z m-2085 -39 c-10 -11 -22 -20
-28 -20 -5 0 1 9 14 20 31 25 37 25 14 0z m2272 -36 c-3 -3 -12 -4 -19 -1 -8
3 -5 6 6 6 11 1 17 -2 13 -5z m-2563 -119 c-4 -8 -11 -12 -16 -9 -6 4 -5 10 3
15 19 12 19 11 13 -6z m3306 -427 c0 -5 -7 -3 -15 6 -8 8 -15 18 -15 22 0 3 7
1 15 -6 8 -7 15 -17 15 -22z m-4200 -512 c0 -2 -7 -7 -16 -10 -8 -3 -12 -2 -9
4 6 10 25 14 25 6z m-170 -340 c0 -2 -7 -9 -15 -16 -13 -11 -14 -10 -9 4 5 14
24 23 24 12z m-133 -463 c1 -24 0 -25 -6 -8 -7 17 -6 35 2 35 2 0 3 -12 4 -27z
m-43 -211 c3 -5 -1 -9 -9 -9 -8 0 -12 4 -9 9 3 4 7 8 9 8 2 0 6 -4 9 -8z"/>
<path d="M5181 9184 c0 -11 3 -14 6 -6 3 7 2 16 -1 19 -3 4 -6 -2 -5 -13z"/>
<path d="M4353 9145 c0 -8 4 -12 9 -9 5 3 6 10 3 15 -9 13 -12 11 -12 -6z"/>
<path d="M6250 8835 c0 -7 30 -13 34 -7 3 4 -4 9 -15 9 -10 1 -19 0 -19 -2z"/>
<path d="M6402 8751 c-11 -7 -11 -9 0 -14 9 -3 15 1 15 9 0 8 -1 14 -1 14 -1
0 -7 -4 -14 -9z"/>
<path d="M3250 8609 c0 -5 5 -7 10 -4 6 3 10 8 10 11 0 2 -4 4 -10 4 -5 0 -10
-5 -10 -11z"/>
<path d="M3070 8451 c0 -7 -5 -9 -12 -5 -7 4 -8 3 -4 -4 4 -7 2 -12 -3 -12 -6
0 -11 -5 -11 -12 0 -7 10 -3 22 10 12 12 19 25 15 28 -4 4 -7 2 -7 -5z"/>
<path d="M2980 8359 c0 -5 5 -7 10 -4 6 3 10 8 10 11 0 2 -4 4 -10 4 -5 0 -10
-5 -10 -11z"/>
<path d="M6880 8336 c0 -2 7 -9 15 -16 13 -11 14 -10 9 4 -5 14 -24 23 -24 12z"/>
<path d="M6926 8288 c3 -5 10 -6 15 -3 13 9 11 12 -6 12 -8 0 -12 -4 -9 -9z"/>
<path d="M2831 8213 c-1 -17 16 -25 25 -12 4 7 3 9 -4 5 -5 -3 -13 0 -15 6 -4
9 -6 10 -6 1z"/>
<path d="M2671 7964 c0 -11 3 -14 6 -6 3 7 2 16 -1 19 -3 4 -6 -2 -5 -13z"/>
<path d="M7470 7330 c-9 -6 -10 -10 -3 -10 6 0 15 5 18 10 8 12 4 12 -15 0z"/>
</g>
</svg>
